# xmcd
#
# Track frame offsets:
#	299
#	16899
#	31601
#	43491
#	58744
#	71523
#	84424
#	98558
#	110370
#	120848
#	132898
#
# Disc length: 1971 seconds
#
# Revision: 0
# Processed by: cddbd v1.5.2PL0 Copyright (c) Steve Scherf et al.
# Submitted via: dBpowerAMP V4.0
#
DISCID=8307b00b
DTITLE=Ray Stevens - New Orleans Moon
DYEAR=2007
DGENRE=Comedy
TTITLE0=Way Down Yonder in New Orleans
TTITLE1=New Orleans Moon
TTITLE2=Basin Street Blues
TTITLE3=When The Saints Go Marching In
TTITLE4=St. James Infirmary/Just A Closer Walk With Thee
TTITLE5=Jambalaya
TTITLE6=Louisiana
TTITLE7=Louisiana Man
TTITLE8=New Orleans
TTITLE9=The Battle of New Orleans
TTITLE10=Do You Know What It Means To Miss New Orleans
EXTD=
EXTT0=
EXTT1=
EXTT2=
EXTT3=
EXTT4=
EXTT5=
EXTT6=
EXTT7=
EXTT8=
EXTT9=
EXTT10=
PLAYORDER=
